<svg width="32" height="32" viewBox="0 0 32 32" xmlns="http://www.w3.org/2000/svg"><path d="M10.997 10.558c-.876-1.27-1.09-2.92-.422-4.4-.54-.412-1.194-.647-1.87-.667C8 6.407 7.82 7.67 8.36 8.788c.508 1.047 1.536 1.682 2.635 1.77zm4.598-2.13c.722-1.502.48-3.2-.455-4.428-1.54.045-3.018.92-3.738 2.424-.713 1.48-.47 3.18.458 4.41 1.546-.046 3.024-.923 3.735-2.405zm11.062 8.918c-1.195 0-2.3.404-3.195 1.082.004.13.008.26.008.39 0 4.138-2.81 7.647-6.608 8.763 3.283-1.083 5.682-4.17 5.682-7.795 0-4.587-3.733-8.245-8.258-8.245-4.493 0-8.225 3.658-8.225 8.245 0 3.63 2.41 6.723 5.683 7.802-3.79-1.11-6.608-4.625-6.608-8.768 0-.5.04-.993.117-1.47C2.378 17.387 0 19.737 0 22.684 0 25.61 2.414 28 5.32 28l.06-.002h21.218l.06.002.058-.002h.194v-.01c2.81-.133 5.09-2.462 5.09-5.303 0-2.972-2.418-5.34-5.343-5.34z" fill="#000" fill-rule="evenodd"/></svg>